<svg viewBox="0 0 29 28" fill="currentColor" xmlns="http://www.w3.org/2000/svg">
    <path d="M11.6817 0.307453C5.59747 0.307453 0.640747 5.26418 0.640747 11.3484C0.640747 17.4326 5.59747 22.3893 11.6817 22.3893C14.3135 22.3893 16.7329 21.4597 18.6329 19.9146L26.103 27.3848C26.3895 27.6832 26.8149 27.8034 27.2152 27.6991C27.6154 27.5947 27.928 27.2821 28.0323 26.8819C28.1367 26.4816 28.0165 26.0562 27.7181 25.7697L20.2479 18.2996C21.7929 16.3996 22.7226 13.9802 22.7226 11.3484C22.7226 5.26418 17.7659 0.307453 11.6817 0.307453ZM11.6817 2.59179C16.5314 2.59179 20.4383 6.49873 20.4383 11.3484C20.4383 13.7109 19.5064 15.8453 17.9948 17.4176C17.9017 17.4861 17.8194 17.5684 17.7509 17.6615C16.1786 19.1731 14.0442 20.105 11.6817 20.105C6.83202 20.105 2.92509 16.1981 2.92509 11.3484C2.92509 6.49872 6.83201 2.59179 11.6817 2.59179Z" />
</svg>